<?xml version="1.0" encoding="UTF-8" standalone="no"?>
<svg
   xmlns:dc="http://purl.org/dc/elements/1.1/"
   xmlns:cc="http://creativecommons.org/ns#"
   xmlns:rdf="http://www.w3.org/1999/02/22-rdf-syntax-ns#"
   xmlns:svg="http://www.w3.org/2000/svg"
   xmlns="http://www.w3.org/2000/svg"
   viewBox="0 0 359.05511 241.92914"
   height="241.92914"
   width="359.05511"
   xml:space="preserve"
   id="svg815"
   version="1.1"><metadata
     id="metadata821"><rdf:RDF><cc:Work
         rdf:about=""><dc:format>image/svg+xml</dc:format><dc:type
           rdf:resource="http://purl.org/dc/dcmitype/StillImage" /><dc:title></dc:title></cc:Work></rdf:RDF></metadata><defs
     id="defs819" /><g
     transform="matrix(1.3333333,0,0,1.3333333,0,-324.99978)"
     id="g823"><g
       transform="translate(0,159.69952)"
       id="g825"><path
         id="path827"
         style="fill:#006666;fill-opacity:1;fill-rule:nonzero;stroke:none"
         d="m 96.582,179.406 13.734,10.59 -45.664,51.453 -13.734,-10.59 z" /><path
         id="path829"
         style="fill:#006666;fill-opacity:1;fill-rule:nonzero;stroke:none"
         d="m 196.383,84.551 c 28.371,0 51.375,23 51.375,51.375 0,28.371 -23.004,51.375 -51.375,51.375 z" /><path
         id="path831"
         style="fill:#0046aa;fill-opacity:1;fill-rule:nonzero;stroke:none"
         d="m 196.383,107.355 c 15.777,0 28.57,12.79 28.57,28.571 0,15.777 -12.793,28.57 -28.57,28.57 z" /><g
         transform="scale(1,0.727836)"
         id="g833"><path
           id="path835"
           style="fill:#0046aa;fill-opacity:1;fill-rule:nonzero;stroke:#0046aa;stroke-width:0.74080998;stroke-linecap:butt;stroke-linejoin:miter;stroke-miterlimit:4;stroke-dasharray:none;stroke-opacity:1"
           d="m 192.188,260.017 h 20.765 l 17.641,52.381 17.234,-52.381 h 20.203 l -26.047,70.994 -4.656,12.838 c -1.711,4.304 -3.34,7.589 -4.89,9.853 -1.555,2.276 -3.34,4.111 -5.36,5.518 -2.012,1.416 -4.484,2.517 -7.422,3.306 -2.937,0.783 -6.261,1.18 -9.968,1.18 -3.75,0 -7.43,-0.397 -11.032,-1.18 l -1.75,-15.264 c 3.063,0.601 5.817,0.902 8.266,0.902 4.539,0 7.898,-1.331 10.078,-3.993 2.176,-2.662 3.844,-6.054 5,-10.176 z" /></g><path
         id="path837"
         style="fill:#006666;fill-opacity:1;fill-rule:nonzero;stroke:none"
         d="m 52.914,153.332 v -12.094 l 43.672,-0.062 v 38.25 c -6.711,5.344 -13.625,9.367 -20.75,12.062 -7.125,2.696 -14.438,4.047 -21.938,4.047 -10.125,0 -19.324,-2.164 -27.593,-6.5 -8.274,-4.344 -14.516,-10.613 -18.735,-18.812 -4.218,-8.207 -6.328,-17.375 -6.328,-27.5 0,-10.032 2.094,-19.395 6.281,-28.094 4.196,-8.695 10.235,-15.156 18.11,-19.375 7.875,-4.219 16.945,-6.328 27.219,-6.328 7.445,0 14.179,1.211 20.203,3.625 6.031,2.418 10.754,5.781 14.172,10.094 3.425,4.312 6.031,9.937 7.812,16.875 l -12.312,3.375 c -1.543,-5.25 -3.465,-9.375 -5.766,-12.375 -2.293,-3 -5.574,-5.399 -9.844,-7.204 -4.262,-1.812 -8.996,-2.718 -14.203,-2.718 -6.23,0 -11.621,0.953 -16.172,2.859 -4.543,1.898 -8.211,4.391 -11,7.484 -2.793,3.094 -4.961,6.493 -6.5,10.188 -2.625,6.375 -3.937,13.293 -3.937,20.75 0,9.187 1.578,16.875 4.734,23.062 3.164,6.188 7.77,10.782 13.813,13.782 6.05,3 12.476,4.5 19.281,4.5 5.906,0 11.672,-1.133 17.297,-3.407 5.625,-2.281 9.89,-4.707 12.797,-7.281 v -19.203 z" /><path
         id="path839"
         style="fill:#ffd700;fill-opacity:1;fill-rule:nonzero;stroke:none"
         d="m 220.754,205.344 h -24.371 v 47.25 h -21.176 v -47.25 H 96.582 V 179.406 L 176.09,84.684 h 20.293 v 102.617 h 24.371 z M 175.207,187.301 V 111.52 l -63.629,75.781 z" /></g></g></svg>